<svg width="1169" height="720" viewBox="0 0 1169 720" fill="none" xmlns="http://www.w3.org/2000/svg">
  <line x1="795" y1="289" x2="1169" y2="289" stroke="#002266" stroke-width="4" />
  <line x1="45" y1="474" x2="419" y2="474" stroke="#CCD6EA" stroke-width="4" />
  <circle cx="573" cy="360" r="293" fill="url(#paint0_linear_706_415)" />
  <circle cx="573" cy="360" r="359" stroke="#00256F" stroke-opacity="0.15" stroke-width="2" />
  <circle cx="572.5" cy="360.5" r="238" stroke="white" stroke-width="15" />
  <path
    d="M4.52734 470.75H16.7773V379.25H4.27734V374H39.0273L69.0273 448.25L99.0273 374H132.527V379.25H119.527V470.75H133.777V476H89.5273V470.75H101.527L101.777 382L64.7773 474.5H62.0273L22.7773 381.75V470.75H34.7773V476H4.52734V470.75ZM141.609 441.75C141.609 431.25 144.943 422.833 151.609 416.5C158.276 410 166.609 406.75 176.609 406.75C186.776 406.75 195.109 410 201.609 416.5C208.276 422.833 211.609 431.25 211.609 441.75C211.609 452.25 208.359 460.833 201.859 467.5C195.359 474.167 187.026 477.5 176.859 477.5C166.693 477.5 158.276 474.167 151.609 467.5C144.943 460.833 141.609 452.25 141.609 441.75ZM176.609 471.75C188.109 471.75 193.609 461.75 193.109 441.75C193.109 432.417 191.943 425.167 189.609 420C187.276 414.833 182.943 412.25 176.609 412.25C167.609 412.25 162.359 418.167 160.859 430C160.359 433.667 160.109 437.583 160.109 441.75C160.109 451.25 161.193 458.333 163.359 463C166.026 468.833 170.443 471.75 176.609 471.75ZM222.887 413H216.137V407.75H251.137V413H242.637L262.637 458.75L280.637 413H271.637V407.75H295.887V413H287.137L260.637 477.5H253.637L222.887 413ZM325.84 391.5C324.007 393.333 321.84 394.25 319.34 394.25C316.84 394.25 314.673 393.417 312.84 391.75C311.007 389.917 310.09 387.75 310.09 385.25C310.09 382.583 310.923 380.333 312.59 378.5C314.423 376.667 316.59 375.75 319.09 375.75C323.257 375.75 326.173 377.583 327.84 381.25C328.34 382.417 328.59 384 328.59 386C328.59 387.833 327.673 389.667 325.84 391.5ZM299.59 470.75H310.59V413H300.59V407.75H328.09V470.75H339.09V476H299.59V470.75ZM392.617 413C385.451 413 378.867 416.417 372.867 423.25V470.75H385.117V476H344.867V470.75H355.617V413H344.867V407.75H372.867V416.25C379.534 409.917 387.201 406.75 395.867 406.75C401.867 406.75 407.117 408.25 411.617 411.25C417.617 415.25 420.617 421.417 420.617 429.75V470.75H431.117V476H391.117V470.75H403.117V428.5C403.117 423.333 402.617 419.833 401.617 418C399.617 414.667 396.617 413 392.617 413ZM439.82 468.5C439.82 461.333 443.82 455.667 451.82 451.5C444.82 446.833 441.32 440.667 441.32 433C441.32 425.167 444.237 418.833 450.07 414C455.904 409.167 462.654 406.75 470.32 406.75C477.987 406.75 484.487 408.417 489.82 411.75C492.487 411.25 494.487 410.417 495.82 409.25C492.987 407.75 491.57 405.667 491.57 403C491.57 400.333 492.404 398.167 494.07 396.5C495.737 394.833 497.654 394 499.82 394C502.154 394 504.154 394.75 505.82 396.25C507.487 397.75 508.32 399.917 508.32 402.75C508.32 405.583 506.82 408.25 503.82 410.75C500.82 413.25 497.737 414.833 494.57 415.5C499.404 420.333 501.82 426.167 501.82 433C501.987 439.833 499.07 445.583 493.07 450.25C487.237 454.75 479.987 457 471.32 457C465.654 457 460.57 456 456.07 454C451.404 456 449.07 458.583 449.07 461.75C449.07 465.417 452.32 467.25 458.82 467.25H477.57C498.737 467.25 509.237 474.167 509.07 488C509.07 496.333 505.57 502.583 498.57 506.75C491.57 511.083 482.904 513.25 472.57 513.25C457.07 513.25 446.654 510.167 441.32 504C439.32 501.833 438.32 499.083 438.32 495.75C438.32 492.417 439.654 489.25 442.32 486.25C444.987 483.417 448.404 481.5 452.57 480.5C448.904 479.833 445.904 478.25 443.57 475.75C441.07 473.417 439.82 471 439.82 468.5ZM457.82 432.5C457.82 445.167 462.32 451.5 471.32 451.5C480.82 451.5 485.57 445 485.57 432C485.737 418.833 481.07 412.25 471.57 412.25C464.07 412.25 459.654 416.333 458.32 424.5C457.987 427 457.82 429.667 457.82 432.5ZM451.32 495C451.32 503.5 458.654 507.75 473.32 507.75C480.82 507.75 486.57 506.417 490.57 503.75C494.737 501.083 496.82 497.75 496.82 493.75C496.82 488.25 494.154 484.417 488.82 482.25C486.987 481.583 484.654 481.25 481.82 481.25H461.57C458.57 482.083 456.07 483.667 454.07 486C452.237 488.5 451.32 491.5 451.32 495ZM559.773 470.75H573.023V379.25H559.773V374H643.273V403.5H638.023C637.523 395 636.19 389.25 634.023 386.25C631.023 382.083 625.523 379.75 617.523 379.25H591.023V423H605.523C613.523 423 617.773 420.25 618.273 414.75C618.44 413.75 618.523 412.75 618.523 411.75C618.69 410.583 618.857 409.5 619.023 408.5H624.273V443.5H619.023C618.857 442.5 618.69 441.333 618.523 440C618.523 438.5 618.44 437.333 618.273 436.5C617.607 431 613.357 428.25 605.523 428.25H591.023V470.75H612.523V476H559.773V470.75ZM652.078 441.75C652.078 431.25 655.411 422.833 662.078 416.5C668.745 410 677.078 406.75 687.078 406.75C697.245 406.75 705.578 410 712.078 416.5C718.745 422.833 722.078 431.25 722.078 441.75C722.078 452.25 718.828 460.833 712.328 467.5C705.828 474.167 697.495 477.5 687.328 477.5C677.161 477.5 668.745 474.167 662.078 467.5C655.411 460.833 652.078 452.25 652.078 441.75ZM687.078 471.75C698.578 471.75 704.078 461.75 703.578 441.75C703.578 432.417 702.411 425.167 700.078 420C697.745 414.833 693.411 412.25 687.078 412.25C678.078 412.25 672.828 418.167 671.328 430C670.828 433.667 670.578 437.583 670.578 441.75C670.578 451.25 671.661 458.333 673.828 463C676.495 468.833 680.911 471.75 687.078 471.75ZM759.855 417C767.022 410.167 774.689 406.75 782.855 406.75C785.689 406.75 788.105 407.667 790.105 409.5C792.105 411.167 793.105 413.417 793.105 416.25C793.105 418.917 792.189 421.167 790.355 423C788.689 424.667 786.605 425.5 784.105 425.5C781.772 425.5 779.689 424.667 777.855 423C776.189 421.167 775.355 419.417 775.355 417.75C775.355 415.917 775.522 414.5 775.855 413.5C769.355 415.5 764.022 418.833 759.855 423.5V471H774.355V476H732.355V471H742.355V413H732.355V407.75H759.855V417ZM799.309 413H794.809V407.75H826.309V413H818.309L836.809 455L855.809 407.75H860.309L881.309 454.75L897.309 413H887.809V407.75H910.559V413H903.309L879.059 477.5H873.809L852.309 431.25L833.559 477.5H828.309L799.309 413ZM931.863 415.5C935.03 416.333 936.863 418.917 937.363 423.25C937.363 425.75 936.447 427.833 934.613 429.5C932.78 431.167 930.613 432 928.113 432C925.613 432 923.447 431.167 921.613 429.5C919.947 427.833 919.113 425.833 919.113 423.5C919.113 421.167 919.613 419.25 920.613 417.75C923.113 413.583 927.613 410.5 934.113 408.5C938.28 407.333 942.197 406.75 945.863 406.75C955.863 406.75 963.197 408.833 967.863 413C972.697 417 975.113 422.583 975.113 429.75V465.25C975.113 469.083 976.03 471 977.863 471C979.697 470.833 981.447 469.667 983.113 467.5L986.613 470.5C983.613 475 978.697 477.25 971.863 477.25C969.363 477.25 966.863 476.5 964.363 475C961.863 473.5 960.197 471.333 959.363 468.5C954.197 474.5 947.28 477.5 938.613 477.5C932.113 477.5 926.447 475.667 921.613 472C916.78 468.333 914.363 463.5 914.363 457.5C914.363 451.5 916.697 446.833 921.363 443.5C926.03 440.167 932.03 438.5 939.363 438.5C946.863 438.5 953.03 440.25 957.863 443.75V428C957.863 422.667 957.197 419 955.863 417C953.697 413.667 950.53 412 946.363 412C939.03 412 934.197 413.167 931.863 415.5ZM943.613 470.75C949.28 470.75 954.197 468.167 958.363 463V449.75C954.53 446.083 950.28 444.25 945.613 444.25C941.113 444.25 937.697 445.333 935.363 447.5C933.197 449.5 932.113 452.833 932.113 457.5C932.113 464.5 934.613 468.667 939.613 470C940.947 470.5 942.28 470.75 943.613 470.75ZM1021.07 417C1028.23 410.167 1035.9 406.75 1044.07 406.75C1046.9 406.75 1049.32 407.667 1051.32 409.5C1053.32 411.167 1054.32 413.417 1054.32 416.25C1054.32 418.917 1053.4 421.167 1051.57 423C1049.9 424.667 1047.82 425.5 1045.32 425.5C1042.98 425.5 1040.9 424.667 1039.07 423C1037.4 421.167 1036.57 419.417 1036.57 417.75C1036.57 415.917 1036.73 414.5 1037.07 413.5C1030.57 415.5 1025.23 418.833 1021.07 423.5V471H1035.57V476H993.566V471H1003.57V413H993.566V407.75H1021.07V417ZM1117.52 469C1112.35 474.5 1104.6 477.333 1094.27 477.5C1090.77 477.5 1087.1 476.833 1083.27 475.5C1079.44 474 1076.1 471.833 1073.27 469C1067.1 462.667 1064.02 453.917 1064.02 442.75C1064.02 431.583 1067.19 422.833 1073.52 416.5C1080.02 410 1087.85 406.75 1097.02 406.75C1103.02 406.75 1108.52 407.917 1113.52 410.25C1115.02 410.917 1116.35 411.75 1117.52 412.75V369H1103.77V363.75H1135.02V470.75H1145.02V476H1117.52V469ZM1117.52 419.75C1112.85 414.917 1107.02 412.5 1100.02 412.5C1088.35 412.5 1082.52 422.25 1082.52 441.75C1082.52 456.25 1085.69 465.417 1092.02 469.25C1094.35 470.417 1097.1 471 1100.27 471C1103.6 471 1106.77 470.167 1109.77 468.5C1112.94 466.667 1115.52 464.167 1117.52 461V419.75ZM145.748 515.5C145.748 510.5 148.081 507.667 152.748 507C152.415 505.833 151.415 504.917 149.748 504.25C148.081 503.417 146.248 503 144.248 503C140.248 503 137.581 504.667 136.248 508C134.915 511.167 134.248 516 134.248 522.5V542.75H147.748L149.248 548H134.248V605.75H148.248V611H106.248V605.75H116.748V548H106.248V542.75H116.748V526C116.748 516.667 119.081 509.667 123.748 505C128.415 500.167 134.165 497.75 140.998 497.75C147.831 497.75 153.081 499.333 156.748 502.5C160.415 505.5 162.248 509.167 162.248 513.5C162.248 517.667 160.498 520.5 156.998 522C155.998 522.333 154.665 522.5 152.998 522.5C151.331 522.5 149.665 521.833 147.998 520.5C146.498 519.167 145.748 517.5 145.748 515.5ZM187.775 552C194.942 545.167 202.609 541.75 210.775 541.75C213.609 541.75 216.025 542.667 218.025 544.5C220.025 546.167 221.025 548.417 221.025 551.25C221.025 553.917 220.109 556.167 218.275 558C216.609 559.667 214.525 560.5 212.025 560.5C209.692 560.5 207.609 559.667 205.775 558C204.109 556.167 203.275 554.417 203.275 552.75C203.275 550.917 203.442 549.5 203.775 548.5C197.275 550.5 191.942 553.833 187.775 558.5V606H202.275V611H160.275V606H170.275V548H160.275V542.75H187.775V552ZM227.479 576.75C227.479 566.25 230.812 557.833 237.479 551.5C244.145 545 252.479 541.75 262.479 541.75C272.645 541.75 280.979 545 287.479 551.5C294.145 557.833 297.479 566.25 297.479 576.75C297.479 587.25 294.229 595.833 287.729 602.5C281.229 609.167 272.895 612.5 262.729 612.5C252.562 612.5 244.145 609.167 237.479 602.5C230.812 595.833 227.479 587.25 227.479 576.75ZM262.479 606.75C273.979 606.75 279.479 596.75 278.979 576.75C278.979 567.417 277.812 560.167 275.479 555C273.145 549.833 268.812 547.25 262.479 547.25C253.479 547.25 248.229 553.167 246.729 565C246.229 568.667 245.979 572.583 245.979 576.75C245.979 586.25 247.062 593.333 249.229 598C251.895 603.833 256.312 606.75 262.479 606.75ZM354.756 541.75C365.423 541.75 372.839 545.583 377.006 553.25C384.006 545.583 392.006 541.75 401.006 541.75C407.006 541.75 412.256 543.25 416.756 546.25C422.589 550.25 425.506 556.417 425.506 564.75V605.75H436.506V611H396.756V605.75H408.256V563C408.256 558 407.673 554.583 406.506 552.75C405.339 550.917 404.089 549.667 402.756 549C401.423 548.333 399.256 548 396.256 548C393.423 548 390.339 549 387.006 551C383.839 553 381.173 555.583 379.006 558.75C379.339 560.75 379.506 562.5 379.506 564V605.75H390.506V611H351.256V605.75H362.256V562.25C362.256 557.583 361.673 554.417 360.506 552.75C358.673 549.583 355.839 548 352.006 548C345.173 548 339.256 551.083 334.256 557.25V605.75H345.006V611H306.006V605.75H317.006V547.75H305.756V542.75H334.256V550.5C340.589 544.667 347.423 541.75 354.756 541.75ZM512.385 595C512.385 602.667 515.468 606.5 521.635 606.5C526.135 606.5 530.218 604.583 533.885 600.75L537.385 603.75C534.218 607.583 529.885 610.25 524.385 611.75C522.551 612.25 520.635 612.5 518.635 612.5C502.801 612.5 494.885 605.083 494.885 590.25V548H486.635V542.75H494.885V522.5C500.718 522.5 506.551 521 512.385 518V542.75H534.385V548H512.385V595ZM543.061 605.75H553.811V504H542.311V498.75H571.061V551.25C577.727 544.917 585.394 541.75 594.061 541.75C600.061 541.75 605.311 543.25 609.811 546.25C615.644 550.25 618.561 556.417 618.561 564.75V605.75H629.311V611H590.311V605.75H601.311V563.5C601.311 558.333 600.727 554.833 599.561 553C598.561 551 597.311 549.667 595.811 549C594.477 548.333 592.477 548 589.811 548C587.144 548 584.061 548.833 580.561 550.5C577.061 552.167 573.894 554.75 571.061 558.25V605.75H581.811V611H543.061V605.75ZM701.514 599.25C694.514 607.917 684.597 612.333 671.764 612.5C667.43 612.5 662.93 611.583 658.264 609.75C653.597 607.917 649.68 605.417 646.514 602.25C639.68 595.583 636.264 587.083 636.264 576.75C636.43 566.25 639.847 557.833 646.514 551.5C653.347 545 661.93 541.75 672.264 541.75C687.597 541.75 697.264 548.167 701.264 561C702.597 565 703.264 569.583 703.264 574.75H654.764V576.75C654.764 590.417 658.68 599.417 666.514 603.75C669.18 605.25 672.264 606 675.764 606C683.93 606 691.347 602.667 698.014 596L701.514 599.25ZM685.014 569.25C685.014 562.25 683.93 556.833 681.764 553C679.764 549.167 676.43 547.25 671.764 547.25C661.93 547.25 656.43 554.583 655.264 569.25H685.014ZM757.717 605.75H769.467V514.25H757.967V509H801.217C815.05 509 825.133 511.833 831.467 517.5C837.8 523.167 840.967 531.25 840.967 541.75C840.967 552.083 837.633 560.583 830.967 567.25C824.3 573.75 814.467 577 801.467 577H787.217V605.75H804.217V611H757.717V605.75ZM799.717 572.25C810.383 572.25 817.383 566.417 820.717 554.75C821.883 550.75 822.467 546.5 822.467 542C822.467 523.5 814.967 514.25 799.967 514.25H787.217V572.25H799.717ZM868.67 550.5C871.837 551.333 873.67 553.917 874.17 558.25C874.17 560.75 873.253 562.833 871.42 564.5C869.587 566.167 867.42 567 864.92 567C862.42 567 860.253 566.167 858.42 564.5C856.753 562.833 855.92 560.833 855.92 558.5C855.92 556.167 856.42 554.25 857.42 552.75C859.92 548.583 864.42 545.5 870.92 543.5C875.087 542.333 879.003 541.75 882.67 541.75C892.67 541.75 900.003 543.833 904.67 548C909.503 552 911.92 557.583 911.92 564.75V600.25C911.92 604.083 912.837 606 914.67 606C916.503 605.833 918.253 604.667 919.92 602.5L923.42 605.5C920.42 610 915.503 612.25 908.67 612.25C906.17 612.25 903.67 611.5 901.17 610C898.67 608.5 897.003 606.333 896.17 603.5C891.003 609.5 884.087 612.5 875.42 612.5C868.92 612.5 863.253 610.667 858.42 607C853.587 603.333 851.17 598.5 851.17 592.5C851.17 586.5 853.503 581.833 858.17 578.5C862.837 575.167 868.837 573.5 876.17 573.5C883.67 573.5 889.837 575.25 894.67 578.75V563C894.67 557.667 894.003 554 892.67 552C890.503 548.667 887.337 547 883.17 547C875.837 547 871.003 548.167 868.67 550.5ZM880.42 605.75C886.087 605.75 891.003 603.167 895.17 598V584.75C891.337 581.083 887.087 579.25 882.42 579.25C877.92 579.25 874.503 580.333 872.17 582.5C870.003 584.5 868.92 587.833 868.92 592.5C868.92 599.5 871.42 603.667 876.42 605C877.753 605.5 879.087 605.75 880.42 605.75ZM962.623 606.75C970.956 606.75 975.456 603.75 976.123 597.75C976.123 595.583 974.54 593.583 971.373 591.75C968.373 589.75 963.373 587.5 956.373 585C949.373 582.5 943.873 579.333 939.873 575.5C936.04 571.5 934.123 566.667 934.123 561C934.123 555.333 936.623 550.75 941.623 547.25C946.79 543.583 952.623 541.75 959.123 541.75C965.79 541.75 971.123 543.333 975.123 546.5C977.456 546 978.623 544.417 978.623 541.75H983.623V560.5H977.873C977.206 556.167 975.206 552.833 971.873 550.5C968.54 548.167 964.623 547 960.123 547C955.79 547 952.456 547.917 950.123 549.75C947.79 551.417 946.623 553.5 946.623 556C946.623 558.333 947.956 560.583 950.623 562.75C953.29 564.75 957.123 566.667 962.123 568.5C967.123 570.167 971.04 571.583 973.873 572.75C983.04 577.25 987.623 583.667 987.623 592C987.623 600.333 982.956 606.333 973.623 610C969.956 611.667 966.206 612.5 962.373 612.5C954.54 612.333 947.873 610.167 942.373 606C941.04 607 940.29 608.667 940.123 611H933.623L933.873 591H940.123C940.123 594.333 942.206 597.833 946.373 601.5C950.706 605 956.123 606.75 962.623 606.75ZM1022.33 595C1022.33 602.667 1025.41 606.5 1031.58 606.5C1036.08 606.5 1040.16 604.583 1043.83 600.75L1047.33 603.75C1044.16 607.583 1039.83 610.25 1034.33 611.75C1032.49 612.25 1030.58 612.5 1028.58 612.5C1012.74 612.5 1004.83 605.083 1004.83 590.25V548H996.576V542.75H1004.83V522.5C1010.66 522.5 1016.49 521 1022.33 518V542.75H1044.33V548H1022.33V595Z"
    fill="#002266"
  />
  <defs>
    <linearGradient id="paint0_linear_706_415" x1="720" y1="92.5" x2="354.5" y2="585" gradientUnits="userSpaceOnUse">
      <stop offset="0.1" stop-color="#002266" />
      <stop offset="0.23" stop-color="#003399" />
      <stop offset="0.4" stop-color="#003399" stop-opacity="0.6" />
      <stop offset="0.635" stop-color="#003399" stop-opacity="0.2" />
    </linearGradient>
  </defs>
</svg>
