<svg width="1124" height="720" viewBox="0 0 1124 720" fill="none" xmlns="http://www.w3.org/2000/svg">
  <line x1="750" y1="289" x2="1124" y2="289" stroke="#002266" stroke-width="4" />
  <line x1="-1.74846e-07" y1="474" x2="374" y2="474" stroke="#CCD6EA" stroke-width="4" />
  <circle cx="528" cy="360" r="293" fill="url(#paint0_linear_920_489)" />
  <circle cx="528" cy="360" r="359" stroke="#00256F" stroke-opacity="0.15" stroke-width="2" />
  <circle cx="527.5" cy="360.5" r="238" stroke="white" stroke-width="15" />
  <path
    d="M102.896 326C128.396 326 141.146 334.583 141.146 351.75C141.146 359.583 138.73 365.833 133.896 370.5C129.23 375 122.98 377.917 115.146 379.25C125.646 380.917 132.813 386.25 136.646 395.25C138.146 398.917 139.48 403 140.646 407.5C141.813 411.833 142.813 414.833 143.646 416.5C145.813 420.667 148.896 422.75 152.896 422.75H155.396L155.646 428.25H146.146C137.48 428.25 131.646 427.083 128.646 424.75C125.646 422.417 123.313 417.917 121.646 411.25C120.146 404.417 118.646 399.167 117.146 395.5C115.813 391.667 113.563 388.333 110.396 385.5C107.396 382.5 103.396 381 98.3965 381H86.1465V422.75H101.646V428H57.3965V422.75H68.1465L68.3965 331.25H57.3965V326H102.896ZM101.646 376.5C115.313 376.5 122.146 368.583 122.146 352.75C122.146 345.75 120.563 340.417 117.396 336.75C114.396 333.083 108.73 331.25 100.396 331.25H86.1465V376.5H101.646ZM225.85 416.25C218.85 424.917 208.933 429.333 196.1 429.5C191.766 429.5 187.266 428.583 182.6 426.75C177.933 424.917 174.016 422.417 170.85 419.25C164.016 412.583 160.6 404.083 160.6 393.75C160.766 383.25 164.183 374.833 170.85 368.5C177.683 362 186.266 358.75 196.6 358.75C211.933 358.75 221.6 365.167 225.6 378C226.933 382 227.6 386.583 227.6 391.75H179.1V393.75C179.1 407.417 183.016 416.417 190.85 420.75C193.516 422.25 196.6 423 200.1 423C208.266 423 215.683 419.667 222.35 413L225.85 416.25ZM209.35 386.25C209.35 379.25 208.266 373.833 206.1 370C204.1 366.167 200.766 364.25 196.1 364.25C186.266 364.25 180.766 371.583 179.6 386.25H209.35ZM263.127 412C263.127 419.667 266.21 423.5 272.377 423.5C276.877 423.5 280.96 421.583 284.627 417.75L288.127 420.75C284.96 424.583 280.627 427.25 275.127 428.75C273.294 429.25 271.377 429.5 269.377 429.5C253.544 429.5 245.627 422.083 245.627 407.25V365H237.377V359.75H245.627V339.5C251.46 339.5 257.294 338 263.127 335V359.75H285.127V365H263.127V412ZM323.303 369C330.469 362.167 338.136 358.75 346.303 358.75C349.136 358.75 351.553 359.667 353.553 361.5C355.553 363.167 356.553 365.417 356.553 368.25C356.553 370.917 355.636 373.167 353.803 375C352.136 376.667 350.053 377.5 347.553 377.5C345.219 377.5 343.136 376.667 341.303 375C339.636 373.167 338.803 371.417 338.803 369.75C338.803 367.917 338.969 366.5 339.303 365.5C332.803 367.5 327.469 370.833 323.303 375.5V423H337.803V428H295.803V423H305.803V365H295.803V359.75H323.303V369ZM363.006 393.75C363.006 383.25 366.339 374.833 373.006 368.5C379.673 362 388.006 358.75 398.006 358.75C408.173 358.75 416.506 362 423.006 368.5C429.673 374.833 433.006 383.25 433.006 393.75C433.006 404.25 429.756 412.833 423.256 419.5C416.756 426.167 408.423 429.5 398.256 429.5C388.089 429.5 379.673 426.167 373.006 419.5C366.339 412.833 363.006 404.25 363.006 393.75ZM398.006 423.75C409.506 423.75 415.006 413.75 414.506 393.75C414.506 384.417 413.339 377.167 411.006 372C408.673 366.833 404.339 364.25 398.006 364.25C389.006 364.25 383.756 370.167 382.256 382C381.756 385.667 381.506 389.583 381.506 393.75C381.506 403.25 382.589 410.333 384.756 415C387.423 420.833 391.839 423.75 398.006 423.75ZM475.533 423.75C483.867 423.75 488.367 420.75 489.033 414.75C489.033 412.583 487.45 410.583 484.283 408.75C481.283 406.75 476.283 404.5 469.283 402C462.283 399.5 456.783 396.333 452.783 392.5C448.95 388.5 447.033 383.667 447.033 378C447.033 372.333 449.533 367.75 454.533 364.25C459.7 360.583 465.533 358.75 472.033 358.75C478.7 358.75 484.033 360.333 488.033 363.5C490.367 363 491.533 361.417 491.533 358.75H496.533V377.5H490.783C490.117 373.167 488.117 369.833 484.783 367.5C481.45 365.167 477.533 364 473.033 364C468.7 364 465.367 364.917 463.033 366.75C460.7 368.417 459.533 370.5 459.533 373C459.533 375.333 460.867 377.583 463.533 379.75C466.2 381.75 470.033 383.667 475.033 385.5C480.033 387.167 483.95 388.583 486.783 389.75C495.95 394.25 500.533 400.667 500.533 409C500.533 417.333 495.867 423.333 486.533 427C482.867 428.667 479.117 429.5 475.283 429.5C467.45 429.333 460.783 427.167 455.283 423C453.95 424 453.2 425.667 453.033 428H446.533L446.783 408H453.033C453.033 411.333 455.117 414.833 459.283 418.5C463.617 422 469.033 423.75 475.533 423.75ZM536.986 367C542.153 361.5 550.07 358.75 560.736 358.75C569.236 358.75 576.32 361.75 581.986 367.75C587.82 373.583 590.736 382.167 590.736 393.5C590.903 404.667 587.736 413.5 581.236 420C574.736 426.333 566.903 429.5 557.736 429.5C551.736 429.5 546.236 428.25 541.236 425.75C539.736 425.083 538.32 424.167 536.986 423V460.25H549.236V465.25H509.736V460.25H519.736V365.25H508.986V359.75H536.986V367ZM554.986 423.5C566.486 423.5 572.236 413.75 572.236 394.25C572.236 379.583 569.07 370.417 562.736 366.75C560.57 365.417 557.82 364.833 554.486 365C551.153 365 547.903 365.917 544.736 367.75C541.57 369.583 538.986 372.083 536.986 375.25V416C540.486 419.5 544.903 421.833 550.236 423C551.903 423.333 553.486 423.5 554.986 423.5ZM667.939 416.25C660.939 424.917 651.023 429.333 638.189 429.5C633.856 429.5 629.356 428.583 624.689 426.75C620.023 424.917 616.106 422.417 612.939 419.25C606.106 412.583 602.689 404.083 602.689 393.75C602.856 383.25 606.273 374.833 612.939 368.5C619.773 362 628.356 358.75 638.689 358.75C654.023 358.75 663.689 365.167 667.689 378C669.023 382 669.689 386.583 669.689 391.75H621.189V393.75C621.189 407.417 625.106 416.417 632.939 420.75C635.606 422.25 638.689 423 642.189 423C650.356 423 657.773 419.667 664.439 413L667.939 416.25ZM651.439 386.25C651.439 379.25 650.356 373.833 648.189 370C646.189 366.167 642.856 364.25 638.189 364.25C628.356 364.25 622.856 371.583 621.689 386.25H651.439ZM742.217 418.5C736.55 425.667 727.8 429.333 715.967 429.5C711.8 429.5 707.383 428.667 702.717 427C698.217 425.333 694.3 423 690.967 420C683.8 413.5 680.217 404.833 680.217 394C680.217 383 683.717 374.417 690.717 368.25C697.717 361.917 706.633 358.75 717.467 358.75C723.633 358.75 729.3 360.167 734.467 363C739.633 365.667 742.217 369.417 742.217 374.25C742.217 376.917 741.383 379.167 739.717 381C738.05 382.667 735.883 383.5 733.217 383.5C730.717 383.5 728.633 382.75 726.967 381.25C725.3 379.75 724.467 377.75 724.467 375.25C724.467 371.25 726.05 368.5 729.217 367C725.883 364.833 722.05 363.75 717.717 363.75C704.883 363.75 698.55 373.75 698.717 393.75C698.717 407.75 702.55 416.833 710.217 421C712.717 422.333 715.717 423 719.217 423C727.217 423 733.717 420.417 738.717 415.25L742.217 418.5ZM773.42 412C773.42 419.667 776.503 423.5 782.67 423.5C787.17 423.5 791.253 421.583 794.92 417.75L798.42 420.75C795.253 424.583 790.92 427.25 785.42 428.75C783.587 429.25 781.67 429.5 779.67 429.5C763.837 429.5 755.92 422.083 755.92 407.25V365H747.67V359.75H755.92V339.5C761.753 339.5 767.587 338 773.42 335V359.75H795.42V365H773.42V412ZM830.596 343.5C828.762 345.333 826.596 346.25 824.096 346.25C821.596 346.25 819.429 345.417 817.596 343.75C815.762 341.917 814.846 339.75 814.846 337.25C814.846 334.583 815.679 332.333 817.346 330.5C819.179 328.667 821.346 327.75 823.846 327.75C828.012 327.75 830.929 329.583 832.596 333.25C833.096 334.417 833.346 336 833.346 338C833.346 339.833 832.429 341.667 830.596 343.5ZM804.346 422.75H815.346V365H805.346V359.75H832.846V422.75H843.846V428H804.346V422.75ZM852.623 365H845.873V359.75H880.873V365H872.373L892.373 410.75L910.373 365H901.373V359.75H925.623V365H916.873L890.373 429.5H883.373L852.623 365ZM996.826 416.25C989.826 424.917 979.91 429.333 967.076 429.5C962.743 429.5 958.243 428.583 953.576 426.75C948.91 424.917 944.993 422.417 941.826 419.25C934.993 412.583 931.576 404.083 931.576 393.75C931.743 383.25 935.16 374.833 941.826 368.5C948.66 362 957.243 358.75 967.576 358.75C982.91 358.75 992.576 365.167 996.576 378C997.91 382 998.576 386.583 998.576 391.75H950.076V393.75C950.076 407.417 953.993 416.417 961.826 420.75C964.493 422.25 967.576 423 971.076 423C979.243 423 986.66 419.667 993.326 413L996.826 416.25ZM980.326 386.25C980.326 379.25 979.243 373.833 977.076 370C975.076 366.167 971.743 364.25 967.076 364.25C957.243 364.25 951.743 371.583 950.576 386.25H980.326Z"
    fill="url(#paint1_linear_920_489)"
  />
  <defs>
    <linearGradient id="paint0_linear_920_489" x1="675" y1="92.5" x2="309.5" y2="585" gradientUnits="userSpaceOnUse">
      <stop offset="0.1" stop-color="#002266" />
      <stop offset="0.23" stop-color="#003399" />
      <stop offset="0.4" stop-color="#003399" stop-opacity="0.6" />
      <stop offset="0.635" stop-color="#003399" stop-opacity="0.2" />
    </linearGradient>
    <linearGradient id="paint1_linear_920_489" x1="52" y1="380.5" x2="1005" y2="380.5" gradientUnits="userSpaceOnUse">
      <stop stop-color="#002266" stop-opacity="0.5" />
      <stop offset="1" stop-color="#002266" />
    </linearGradient>
  </defs>
</svg>
