<svg width="176" height="20" viewBox="0 0 176 20" fill="none" xmlns="http://www.w3.org/2000/svg">
<path d="M0.832461 0.799999H11.7525C13.5725 0.799999 14.8898 1.216 15.7045 2.048C16.5365 2.86267 16.9525 4.18 16.9525 6V8.6C16.9525 10.42 16.5365 11.746 15.7045 12.578C14.8898 13.3927 13.5725 13.8 11.7525 13.8H5.51246V19H0.832461V0.799999ZM12.2725 6C12.2725 4.96 11.7525 4.44 10.7125 4.44H5.51246V10.16H10.7125C11.7525 10.16 12.2725 9.64 12.2725 8.6V6ZM24.4914 15.62C25.4101 15.62 26.4501 15.4467 27.6114 15.1V13.54H23.8414C23.5814 13.54 23.3648 13.6267 23.1914 13.8C23.0181 13.9733 22.9314 14.19 22.9314 14.45V14.71C22.9314 14.97 23.0181 15.1867 23.1914 15.36C23.3648 15.5333 23.5814 15.62 23.8414 15.62H24.4914ZM19.6814 5.48C22.8534 5.13333 25.7134 4.96 28.2614 4.96C29.4401 4.96 30.3848 5.31533 31.0954 6.026C31.8061 6.73667 32.1614 7.68133 32.1614 8.86V19H28.1314L27.8714 17.7C27.0568 18.2373 26.2161 18.636 25.3494 18.896C24.5001 19.1387 23.7808 19.26 23.1914 19.26H22.2814C21.1028 19.26 20.1581 18.9047 19.4474 18.194C18.7368 17.4833 18.3814 16.5387 18.3814 15.36V14.19C18.3814 13.0113 18.7368 12.0667 19.4474 11.356C20.1581 10.6453 21.1028 10.29 22.2814 10.29H27.6114V9.25C27.6114 8.99 27.5248 8.77333 27.3514 8.6C27.1781 8.42667 26.9614 8.34 26.7014 8.34C25.5748 8.34 24.3268 8.392 22.9574 8.496C21.6054 8.6 20.5134 8.678 19.6814 8.73V5.48ZM33.9743 15.36C37.493 15.62 40.2663 15.75 42.2943 15.75C42.5543 15.75 42.771 15.6633 42.9443 15.49C43.1177 15.3167 43.2043 15.1 43.2043 14.84V13.93H37.6143C36.4357 13.93 35.491 13.5747 34.7803 12.864C34.0697 12.1533 33.7143 11.2087 33.7143 10.03V9.12C33.7143 7.94133 34.0697 6.99667 34.7803 6.286C35.491 5.57533 36.4357 5.22 37.6143 5.22H46.4543V8.6H39.1743C38.9143 8.6 38.6977 8.68667 38.5243 8.86C38.351 9.03333 38.2643 9.25 38.2643 9.51C38.2643 9.77 38.351 9.98667 38.5243 10.16C38.6977 10.3333 38.9143 10.42 39.1743 10.42H43.8543C45.033 10.42 45.9777 10.7753 46.6883 11.486C47.399 12.1967 47.7543 13.1413 47.7543 14.32V15.36C47.7543 16.5387 47.399 17.4833 46.6883 18.194C45.9777 18.9047 45.033 19.26 43.8543 19.26C40.7863 19.26 37.493 19.0867 33.9743 18.74V15.36ZM59.1964 19C57.515 19.1733 55.8684 19.26 54.2564 19.26C53.0777 19.26 52.133 18.9047 51.4224 18.194C50.7117 17.4833 50.3564 16.5387 50.3564 15.36V8.73H48.7964V5.22H50.3564L50.8764 2.1H54.9064V5.22H58.1564V8.73H54.9064V14.71C54.9064 14.97 54.993 15.1867 55.1664 15.36C55.3397 15.5333 55.5564 15.62 55.8164 15.62H59.1964V19ZM73.7625 19H69.0825V0.799999H83.5125V4.44H73.7625V8.73H81.4325V12.37H73.7625V19ZM98.0714 15.1C98.0714 16.4 97.6988 17.4227 96.9534 18.168C96.2254 18.896 95.2114 19.26 93.9114 19.26H87.9314C86.6314 19.26 85.6088 18.896 84.8634 18.168C84.1354 17.4227 83.7714 16.4 83.7714 15.1V9.12C83.7714 7.82 84.1354 6.806 84.8634 6.078C85.6088 5.33267 86.6314 4.96 87.9314 4.96H93.9114C95.2114 4.96 96.2254 5.33267 96.9534 6.078C97.6988 6.806 98.0714 7.82 98.0714 9.12V15.1ZM93.5214 9.51C93.5214 8.81667 93.1748 8.47 92.4814 8.47H89.3614C88.6681 8.47 88.3214 8.81667 88.3214 9.51V14.71C88.3214 15.4033 88.6681 15.75 89.3614 15.75H92.4814C93.1748 15.75 93.5214 15.4033 93.5214 14.71V9.51ZM108.338 8.99C107.246 8.99 106.12 9.25 104.958 9.77V19H100.408V5.22H104.438L104.698 6.91C106.189 5.61 107.749 4.96 109.378 4.96H110.548V8.99H108.338ZM126.927 13.54L129.267 5.22H134.207L129.917 19H125.107L122.507 10.68L119.907 19H115.097L110.807 5.22H115.747L118.087 13.54L120.427 5.22H124.587L126.927 13.54ZM140.197 15.62C141.115 15.62 142.155 15.4467 143.317 15.1V13.54H139.547C139.287 13.54 139.07 13.6267 138.897 13.8C138.723 13.9733 138.637 14.19 138.637 14.45V14.71C138.637 14.97 138.723 15.1867 138.897 15.36C139.07 15.5333 139.287 15.62 139.547 15.62H140.197ZM135.387 5.48C138.559 5.13333 141.419 4.96 143.967 4.96C145.145 4.96 146.09 5.31533 146.801 6.026C147.511 6.73667 147.867 7.68133 147.867 8.86V19H143.837L143.577 17.7C142.762 18.2373 141.921 18.636 141.055 18.896C140.205 19.1387 139.486 19.26 138.897 19.26H137.987C136.808 19.26 135.863 18.9047 135.153 18.194C134.442 17.4833 134.087 16.5387 134.087 15.36V14.19C134.087 13.0113 134.442 12.0667 135.153 11.356C135.863 10.6453 136.808 10.29 137.987 10.29H143.317V9.25C143.317 8.99 143.23 8.77333 143.057 8.6C142.883 8.42667 142.667 8.34 142.407 8.34C141.28 8.34 140.032 8.392 138.663 8.496C137.311 8.6 136.219 8.678 135.387 8.73V5.48ZM158.129 8.99C157.037 8.99 155.911 9.25 154.749 9.77V19H150.199V5.22H154.229L154.489 6.91C155.98 5.61 157.54 4.96 159.169 4.96H160.339V8.99H158.129ZM171.401 19L171.141 17.7C170.326 18.2373 169.485 18.636 168.619 18.896C167.769 19.1387 167.05 19.26 166.461 19.26H165.291C164.112 19.26 163.167 18.9047 162.457 18.194C161.746 17.4833 161.391 16.5387 161.391 15.36V9.38C161.391 8.08 161.755 7.066 162.483 6.338C163.228 5.59267 164.251 5.22 165.551 5.22H170.881V0.799999H175.431V19H171.401ZM167.761 15.49C168.679 15.49 169.719 15.3167 170.881 14.97V8.73H166.981C166.287 8.73 165.941 9.07667 165.941 9.77V14.58C165.941 14.84 166.027 15.0567 166.201 15.23C166.374 15.4033 166.591 15.49 166.851 15.49H167.761Z" fill="#37447E"/>
</svg>
